<svg xmlns="http://www.w3.org/2000/svg" viewBox="0 0 48 48" width="48" height="48" fill="none">
  <rect width="48" height="48" rx="8" fill="#25D366"/>
  <path d="M34.5 13.5c-1.2-1.3-2.8-2-4.6-2-3.6 0-6.8 3-6.9 6.7-.1 1.5.4 2.9 1.4 4.1l-.1.9-2.1 6.5 6.7-1.9.9-.3c1.1.6 2.3.9 3.6.9 3.7 0 6.7-3 6.7-6.8 0-1.8-.8-3.4-2.2-4.7z" fill="#fff" opacity="0.95"/>
  <path d="M29 19.5c-.3-.1-1-.4-1.6-.4-.5 0-1.2.1-1.9.6-.7.5-1.5 1.4-1.8 2-.4.6-.9 1.6-.4 2.6.5 1 1.8 2.5 4.2 3.6 2.4 1 3.3.9 4.1.8.8-.2 2.6-1 3-2.3.4-1.3.4-2.4.3-2.6-.1-.2-.6-.4-1.4-.7-.8-.3-1.7-.6-1.9-.6-.2 0-.4.1-.6.2z" fill="#fff"/>
</svg>
